<mxfile host="app.diagrams.net" agent="Mozilla/5.0 (Windows NT 10.0; Win64; x64) AppleWebKit/537.36 (KHTML, like Gecko) Chrome/127.0.0.0 Safari/537.36" version="24.8.3">
  <diagram name="PÃ¡gina-1" id="czhbSWQSBDslrykZ_226">
    <mxGraphModel dx="874" dy="426" grid="1" gridSize="10" guides="1" tooltips="1" connect="1" arrows="1" fold="1" page="1" pageScale="1" pageWidth="827" pageHeight="1169" math="0" shadow="0">
      <root>
        <mxCell id="0" />
        <mxCell id="1" parent="0" />
        <mxCell id="AC1YQps3tV8wtmMaawZT-1" value="Inicio" style="strokeWidth=2;html=1;shape=mxgraph.flowchart.start_1;whiteSpace=wrap;" vertex="1" parent="1">
          <mxGeometry x="364" y="10" width="100" height="60" as="geometry" />
        </mxCell>
        <mxCell id="AC1YQps3tV8wtmMaawZT-2" value="&quot;Digite nome Funcionario&quot;" style="strokeWidth=2;html=1;shape=mxgraph.flowchart.display;whiteSpace=wrap;" vertex="1" parent="1">
          <mxGeometry x="364" y="90" width="100" height="60" as="geometry" />
        </mxCell>
        <mxCell id="AC1YQps3tV8wtmMaawZT-3" value="nome:" style="html=1;strokeWidth=2;shape=manualInput;whiteSpace=wrap;rounded=1;size=26;arcSize=11;" vertex="1" parent="1">
          <mxGeometry x="364" y="170" width="100" height="60" as="geometry" />
        </mxCell>
        <mxCell id="AC1YQps3tV8wtmMaawZT-4" value="&quot;Digite Vencimento Mensal&quot;" style="strokeWidth=2;html=1;shape=mxgraph.flowchart.display;whiteSpace=wrap;" vertex="1" parent="1">
          <mxGeometry x="364" y="250" width="100" height="60" as="geometry" />
        </mxCell>
        <mxCell id="AC1YQps3tV8wtmMaawZT-16" style="edgeStyle=orthogonalEdgeStyle;rounded=0;orthogonalLoop=1;jettySize=auto;html=1;exitX=0.5;exitY=1;exitDx=0;exitDy=0;" edge="1" parent="1" source="AC1YQps3tV8wtmMaawZT-5" target="AC1YQps3tV8wtmMaawZT-6">
          <mxGeometry relative="1" as="geometry" />
        </mxCell>
        <mxCell id="AC1YQps3tV8wtmMaawZT-5" value="Vencimento Mensal" style="html=1;strokeWidth=2;shape=manualInput;whiteSpace=wrap;rounded=1;size=26;arcSize=11;" vertex="1" parent="1">
          <mxGeometry x="364" y="330" width="100" height="60" as="geometry" />
        </mxCell>
        <mxCell id="AC1YQps3tV8wtmMaawZT-6" value="&quot;Digite numero de Faltas&quot;" style="strokeWidth=2;html=1;shape=mxgraph.flowchart.display;whiteSpace=wrap;" vertex="1" parent="1">
          <mxGeometry x="364" y="410" width="100" height="60" as="geometry" />
        </mxCell>
        <mxCell id="AC1YQps3tV8wtmMaawZT-18" style="edgeStyle=orthogonalEdgeStyle;rounded=0;orthogonalLoop=1;jettySize=auto;html=1;exitX=0.5;exitY=1;exitDx=0;exitDy=0;entryX=0.5;entryY=0;entryDx=0;entryDy=0;" edge="1" parent="1" source="AC1YQps3tV8wtmMaawZT-7" target="AC1YQps3tV8wtmMaawZT-8">
          <mxGeometry relative="1" as="geometry" />
        </mxCell>
        <mxCell id="AC1YQps3tV8wtmMaawZT-7" value="Numero de Faltas" style="html=1;strokeWidth=2;shape=manualInput;whiteSpace=wrap;rounded=1;size=26;arcSize=11;" vertex="1" parent="1">
          <mxGeometry x="364" y="490" width="100" height="60" as="geometry" />
        </mxCell>
        <mxCell id="AC1YQps3tV8wtmMaawZT-19" style="edgeStyle=orthogonalEdgeStyle;rounded=0;orthogonalLoop=1;jettySize=auto;html=1;exitX=0.5;exitY=1;exitDx=0;exitDy=0;entryX=0.5;entryY=0;entryDx=0;entryDy=0;" edge="1" parent="1" source="AC1YQps3tV8wtmMaawZT-8" target="AC1YQps3tV8wtmMaawZT-9">
          <mxGeometry relative="1" as="geometry" />
        </mxCell>
        <mxCell id="AC1YQps3tV8wtmMaawZT-8" value="valor diario: vencimento mensal / 22" style="rounded=1;whiteSpace=wrap;html=1;absoluteArcSize=1;arcSize=14;strokeWidth=2;" vertex="1" parent="1">
          <mxGeometry x="289" y="570" width="250" height="50" as="geometry" />
        </mxCell>
        <mxCell id="AC1YQps3tV8wtmMaawZT-20" style="edgeStyle=orthogonalEdgeStyle;rounded=0;orthogonalLoop=1;jettySize=auto;html=1;exitX=0.5;exitY=1;exitDx=0;exitDy=0;entryX=0.5;entryY=0;entryDx=0;entryDy=0;" edge="1" parent="1" source="AC1YQps3tV8wtmMaawZT-9" target="AC1YQps3tV8wtmMaawZT-10">
          <mxGeometry relative="1" as="geometry" />
        </mxCell>
        <mxCell id="AC1YQps3tV8wtmMaawZT-9" value="desconto total: valor diario * numero de faltas" style="rounded=1;whiteSpace=wrap;html=1;absoluteArcSize=1;arcSize=14;strokeWidth=2;" vertex="1" parent="1">
          <mxGeometry x="289" y="640" width="250" height="50" as="geometry" />
        </mxCell>
        <mxCell id="AC1YQps3tV8wtmMaawZT-10" value="valor a receber: vencimento mensal - desconto total&lt;div&gt;&lt;br/&gt;&lt;/div&gt;" style="rounded=1;whiteSpace=wrap;html=1;absoluteArcSize=1;arcSize=14;strokeWidth=2;" vertex="1" parent="1">
          <mxGeometry x="289" y="710" width="250" height="50" as="geometry" />
        </mxCell>
        <mxCell id="AC1YQps3tV8wtmMaawZT-11" value="(&quot; nome&quot;,)&amp;nbsp;&lt;div&gt;(&quot;Valor a receber:&quot;,)&amp;nbsp;&lt;/div&gt;" style="strokeWidth=2;html=1;shape=mxgraph.flowchart.terminator;whiteSpace=wrap;" vertex="1" parent="1">
          <mxGeometry x="350" y="780" width="128" height="70" as="geometry" />
        </mxCell>
        <mxCell id="AC1YQps3tV8wtmMaawZT-12" style="edgeStyle=orthogonalEdgeStyle;rounded=0;orthogonalLoop=1;jettySize=auto;html=1;exitX=0.5;exitY=1;exitDx=0;exitDy=0;exitPerimeter=0;entryX=0.5;entryY=0;entryDx=0;entryDy=0;entryPerimeter=0;" edge="1" parent="1" source="AC1YQps3tV8wtmMaawZT-1" target="AC1YQps3tV8wtmMaawZT-2">
          <mxGeometry relative="1" as="geometry" />
        </mxCell>
        <mxCell id="AC1YQps3tV8wtmMaawZT-13" style="edgeStyle=orthogonalEdgeStyle;rounded=0;orthogonalLoop=1;jettySize=auto;html=1;exitX=0.5;exitY=1;exitDx=0;exitDy=0;exitPerimeter=0;entryX=0.5;entryY=0.2;entryDx=0;entryDy=0;entryPerimeter=0;" edge="1" parent="1" source="AC1YQps3tV8wtmMaawZT-2" target="AC1YQps3tV8wtmMaawZT-3">
          <mxGeometry relative="1" as="geometry" />
        </mxCell>
        <mxCell id="AC1YQps3tV8wtmMaawZT-14" style="edgeStyle=orthogonalEdgeStyle;rounded=0;orthogonalLoop=1;jettySize=auto;html=1;exitX=0.5;exitY=1;exitDx=0;exitDy=0;entryX=0.5;entryY=0;entryDx=0;entryDy=0;entryPerimeter=0;" edge="1" parent="1" source="AC1YQps3tV8wtmMaawZT-3" target="AC1YQps3tV8wtmMaawZT-4">
          <mxGeometry relative="1" as="geometry" />
        </mxCell>
        <mxCell id="AC1YQps3tV8wtmMaawZT-15" style="edgeStyle=orthogonalEdgeStyle;rounded=0;orthogonalLoop=1;jettySize=auto;html=1;exitX=0.5;exitY=1;exitDx=0;exitDy=0;exitPerimeter=0;entryX=0.52;entryY=0.267;entryDx=0;entryDy=0;entryPerimeter=0;" edge="1" parent="1" source="AC1YQps3tV8wtmMaawZT-4" target="AC1YQps3tV8wtmMaawZT-5">
          <mxGeometry relative="1" as="geometry" />
        </mxCell>
        <mxCell id="AC1YQps3tV8wtmMaawZT-17" style="edgeStyle=orthogonalEdgeStyle;rounded=0;orthogonalLoop=1;jettySize=auto;html=1;exitX=0.5;exitY=1;exitDx=0;exitDy=0;exitPerimeter=0;entryX=0.53;entryY=0.167;entryDx=0;entryDy=0;entryPerimeter=0;" edge="1" parent="1" source="AC1YQps3tV8wtmMaawZT-6" target="AC1YQps3tV8wtmMaawZT-7">
          <mxGeometry relative="1" as="geometry" />
        </mxCell>
        <mxCell id="AC1YQps3tV8wtmMaawZT-21" style="edgeStyle=orthogonalEdgeStyle;rounded=0;orthogonalLoop=1;jettySize=auto;html=1;exitX=0.5;exitY=1;exitDx=0;exitDy=0;entryX=0.5;entryY=0;entryDx=0;entryDy=0;entryPerimeter=0;" edge="1" parent="1" source="AC1YQps3tV8wtmMaawZT-10" target="AC1YQps3tV8wtmMaawZT-11">
          <mxGeometry relative="1" as="geometry" />
        </mxCell>
        <mxCell id="AC1YQps3tV8wtmMaawZT-22" value="Fim" style="strokeWidth=2;html=1;shape=mxgraph.flowchart.terminator;whiteSpace=wrap;" vertex="1" parent="1">
          <mxGeometry x="364" y="870" width="100" height="60" as="geometry" />
        </mxCell>
        <mxCell id="AC1YQps3tV8wtmMaawZT-23" style="edgeStyle=orthogonalEdgeStyle;rounded=0;orthogonalLoop=1;jettySize=auto;html=1;exitX=0.5;exitY=1;exitDx=0;exitDy=0;exitPerimeter=0;entryX=0.5;entryY=0;entryDx=0;entryDy=0;entryPerimeter=0;" edge="1" parent="1" source="AC1YQps3tV8wtmMaawZT-11" target="AC1YQps3tV8wtmMaawZT-22">
          <mxGeometry relative="1" as="geometry" />
        </mxCell>
      </root>
    </mxGraphModel>
  </diagram>
</mxfile>
